<?xml version="1.0" encoding="utf-8"?>
<svg version="1.1" xmlns="http://www.w3.org/2000/svg" xmlns:xlink="http://www.w3.org/1999/xlink" viewBox="0 0 271 761" xml:space="preserve">
	<style type="text/css">
		.st0{fill:#FFD700;}
		.st1{fill:none;}
	</style>
	<defs>
		<clipPath id="title_mask" class="mask">
			<rect x="0" y="0" width="130" height="761" />
		</clipPath>

		<clipPath id="row1_mask" class="mask">
			<rect x="253" y="0" width="18" height="46" />
		</clipPath>

		<clipPath id="row2_mask" class="mask">
			<rect x="220" y="0" width="19" height="110" />
		</clipPath>

		<clipPath id="row3_mask" class="mask">
			<rect x="188" y="0" width="19" height="34" />
		</clipPath>

		<clipPath id="row4_mask" class="mask">
			<rect x="156" y="0" width="19" height="235" />
		</clipPath>
	</defs>
	<g id="row1" clip-path="url(#row1_mask)">
		<path class="st0" d="M253,4.9h15.2V0h1.9v11.7h-1.9V6.9H253V4.9z" />
		<path class="st0" d="M253,16h17.2v2h-6.6v9.1h6.6v2.1H253v-2.1h8.6V18H253V16z" />
		<path class="st0" d="M253,35.4h17.2v9h-1.9v-7h-4.9v7h-1.9v-7h-6.6v7H253V35.4z" />
	</g>
	<g id="row2" clip-path="url(#row2_mask)">
		<path class="st0" d="M221,1.9h17.2v9h-1.9v-7h-4.9v7h-1.9v-7h-6.6v7H221V1.9z" />
		<path class="st0" d="M230.6,22.2c-0.5,1.1-1.1,2-1.9,2.5s-1.7,0.8-2.8,0.8c-1.6,0-2.8-0.5-3.8-1.5s-1.4-2.3-1.4-4
			c0-1.4,0.3-2.5,1-3.4s1.7-1.5,2.9-1.9l0.9,1.9c-1,0.2-1.8,0.7-2.4,1.2s-0.8,1.3-0.8,2.2c0,1,0.3,1.9,0.9,2.5s1.4,0.9,2.3,0.9
			c0.8,0,1.4-0.2,2-0.7s1-1.1,1.4-2l0.9-2.1c0.5-1.1,1.1-2,1.8-2.5s1.6-0.8,2.7-0.8c1.2,0,2.2,0.5,3,1.4c0.8,0.9,1.2,2.1,1.2,3.5
			c0,1-0.2,1.9-0.7,2.7s-1.1,1.3-1.9,1.8l-1.1-1.7c0.7-0.4,1.2-0.8,1.5-1.3s0.5-1,0.5-1.6c0-0.8-0.2-1.4-0.7-1.9s-1.1-0.7-1.8-0.7
			c-0.6,0-1.1,0.2-1.6,0.6s-0.8,1-1.2,1.7L230.6,22.2z" />
		<path class="st0" d="M230.6,36.8c-0.5,1.1-1.1,2-1.9,2.5s-1.7,0.8-2.8,0.8c-1.6,0-2.8-0.5-3.8-1.5s-1.4-2.3-1.4-4
			c0-1.4,0.3-2.5,1-3.4s1.7-1.5,2.9-1.9l0.9,1.9c-1,0.2-1.8,0.7-2.4,1.2c-0.6,0.5-0.8,1.3-0.8,2.2c0,1,0.3,1.9,0.9,2.5
			s1.4,0.9,2.3,0.9c0.8,0,1.4-0.2,2-0.7s1-1.1,1.4-2l0.9-2.1c0.5-1.1,1.1-2,1.8-2.5s1.6-0.8,2.7-0.8c1.2,0,2.2,0.5,3,1.4
			s1.2,2.1,1.2,3.5c0,1-0.2,1.9-0.7,2.7s-1.1,1.3-1.9,1.8l-1.1-1.7c0.7-0.4,1.2-0.8,1.5-1.3s0.5-1,0.5-1.6c0-0.8-0.2-1.4-0.7-1.9
			s-1.1-0.7-1.8-0.7c-0.6,0-1.1,0.2-1.6,0.6s-0.8,1-1.2,1.7L230.6,36.8z" />
		<path class="st0" d="M221,45.1h17.2v9h-1.9v-7h-4.9v7h-1.9v-7h-6.6v7H221V45.1z" />
		<path class="st0" d="M221,59.6h17.8l-13.7,12.6h13v1.9h-17.8l13.6-12.6H221V59.6z" />
		<path class="st0" d="M234.1,94c0.9-0.8,1.5-1.7,2-2.6s0.6-2,0.6-3.1c0-0.9-0.2-1.8-0.6-2.7s-0.9-1.6-1.5-2.2
			c-0.7-0.7-1.4-1.1-2.3-1.5s-1.8-0.5-2.8-0.5c-0.8,0-1.5,0.1-2.2,0.3s-1.3,0.5-1.9,0.9c-1,0.7-1.7,1.5-2.3,2.5s-0.8,2.1-0.8,3.3
			c0,1.1,0.2,2.1,0.7,3s1.1,1.8,2,2.6h-2.7c-0.6-0.9-1.1-1.8-1.4-2.7s-0.5-2-0.5-3c0-0.9,0.1-1.8,0.4-2.6s0.7-1.7,1.2-2.4
			c0.9-1.2,1.9-2.2,3.2-2.9s2.7-1,4.2-1c1.3,0,2.5,0.2,3.6,0.7s2.1,1.1,2.9,2c0.8,0.9,1.5,1.8,1.9,2.9s0.6,2.2,0.6,3.5
			c0,1-0.2,2-0.5,2.9s-0.8,1.8-1.4,2.8h-2.4V94z" />
		<path class="st0" d="M221,99.6h17.2v9h-1.9v-7h-4.9v7h-1.9v-7h-6.6v7H221V99.6z" />
	</g>
	<g id="row3" clip-path="url(#row3_mask)">
		<path class="st0" d="M197.6,19.4c-1.2,0-2.4-0.2-3.5-0.7s-2.1-1.1-2.9-2c-0.8-0.9-1.5-1.9-2-3s-0.7-2.3-0.7-3.5s0.2-2.4,0.7-3.5
			s1.1-2.1,2-3s1.8-1.5,2.9-2c1.1-0.5,2.2-0.7,3.5-0.7c1.2,0,2.4,0.2,3.5,0.7s2.1,1.1,2.9,2c0.8,0.9,1.5,1.9,1.9,3
			c0.5,1.1,0.7,2.3,0.7,3.5s-0.2,2.4-0.7,3.5s-1.1,2.1-1.9,3c-0.8,0.9-1.8,1.5-2.9,2C200,19.2,198.8,19.4,197.6,19.4z M190.5,10.2
			c0,0.9,0.2,1.8,0.5,2.7s0.9,1.6,1.6,2.3c0.7,0.7,1.4,1.2,2.3,1.5c0.9,0.4,1.8,0.5,2.7,0.5c1,0,1.9-0.2,2.7-0.5
			c0.9-0.4,1.6-0.9,2.3-1.5c0.7-0.7,1.2-1.4,1.5-2.3s0.5-1.7,0.5-2.7s-0.2-1.9-0.5-2.7c-0.4-0.9-0.9-1.6-1.5-2.3
			c-0.7-0.7-1.4-1.2-2.3-1.5c-0.9-0.4-1.8-0.5-2.7-0.5c-1,0-1.9,0.2-2.7,0.5s-1.6,0.9-2.3,1.5c-0.7,0.7-1.2,1.5-1.6,2.3
			C190.7,8.4,190.5,9.3,190.5,10.2z" />
		<path class="st0" d="M189,24.7h17.2v9h-1.9v-7h-4.9v7h-1.9v-7H189V24.7z" />
	</g>
	<g id="row4" clip-path="url(#row4_mask)">
		<path class="st0" d="M157,1.9h17.2v3.6c0,1.3-0.1,2.2-0.2,2.8s-0.3,1.1-0.7,1.5c-0.4,0.5-0.9,1-1.6,1.3s-1.3,0.5-2.1,0.5
			c-0.9,0-1.7-0.2-2.3-0.7s-1-1.1-1.3-1.9c-0.2,1-0.6,1.8-1.4,2.4s-1.7,0.9-2.9,0.9c-0.7,0-1.3-0.1-2-0.4s-1.2-0.6-1.6-1
			c-0.5-0.5-0.8-1.1-1-1.8s-0.1-2-0.1-3.7V1.9z M165.1,3.8h-6.3v1.6c0,1.1,0,1.9,0.1,2.3s0.2,0.9,0.4,1.2c0.2,0.4,0.6,0.6,1,0.8
			s0.9,0.3,1.5,0.3s1.2-0.1,1.6-0.4s0.8-0.6,1.1-1.1c0.2-0.3,0.3-0.6,0.4-0.9s0.1-0.9,0.1-1.7V5.4L165.1,3.8L165.1,3.8z M172.4,3.8
			h-5.7v1.6c0,1.5,0.2,2.5,0.6,3.1s1.1,0.9,2.1,0.9c1.1,0,1.9-0.3,2.3-0.8s0.7-1.6,0.7-3.1L172.4,3.8L172.4,3.8z" />
		<path class="st0" d="M174.9,22.8L157,30.6v-2.2l5.3-2.2v-6.7l-5.3-2.2V15L174.9,22.8z M170.3,22.8L164,20v5.5L170.3,22.8z" />
		<path class="st0" d="M157,34.6h17.2v2h-7.6l7.6,7.2v2.4l-7.7-7.4l-9.4,8.1v-2.6l9.2-7.7H157V34.6z" />
		<path class="st0" d="M157,50.9h17.2v9h-1.9v-7h-4.9v7h-1.9v-7h-6.6v7H157V50.9z" />
		<path class="st0" d="M170.1,88.3c0.9-0.8,1.5-1.7,2-2.6s0.6-2,0.6-3.1c0-0.9-0.2-1.8-0.6-2.7s-0.9-1.6-1.5-2.2
			c-0.7-0.7-1.4-1.1-2.3-1.5s-1.8-0.5-2.8-0.5c-0.8,0-1.5,0.1-2.2,0.3s-1.3,0.5-1.9,0.9c-1,0.7-1.7,1.5-2.3,2.5s-0.8,2.1-0.8,3.3
			c0,1.1,0.2,2.1,0.7,3s1.1,1.8,2,2.6h-2.7c-0.6-0.9-1.1-1.8-1.4-2.7s-0.5-2-0.5-3c0-0.9,0.1-1.8,0.4-2.6s0.7-1.7,1.2-2.4
			c0.9-1.2,1.9-2.2,3.2-2.9s2.7-1,4.2-1c1.3,0,2.5,0.2,3.6,0.7s2.1,1.1,2.9,2c0.8,0.9,1.5,1.8,1.9,2.9s0.6,2.2,0.6,3.5
			c0,1-0.2,2-0.5,2.9s-0.8,1.8-1.4,2.8h-2.4V88.3z" />
		<path class="st0" d="M157,93.8h17.2v2h-6.6v9.1h6.6v2.1H157v-2h8.6v-9.1H157V93.8z" />
		<path class="st0" d="M157,113.2h17.2v9h-1.9v-7h-4.9v7h-1.9v-7h-6.6v7H157V113.2z" />
		<path class="st0" d="M157,127.7h17.2v9h-1.9v-7h-4.9v7h-1.9v-7h-6.6v7H157V127.7z" />
		<path class="st0" d="M166.6,148.1c-0.5,1.1-1.1,2-1.9,2.5s-1.7,0.8-2.8,0.8c-1.6,0-2.8-0.5-3.8-1.5s-1.4-2.3-1.4-4
			c0-1.4,0.3-2.5,1-3.4s1.7-1.5,2.9-1.9l0.9,1.9c-1,0.2-1.8,0.7-2.4,1.2s-0.8,1.3-0.8,2.2c0,1,0.3,1.9,0.9,2.5s1.4,0.9,2.3,0.9
			c0.8,0,1.4-0.2,2-0.7s1-1.1,1.4-2l0.9-2.1c0.5-1.1,1.1-2,1.8-2.5s1.6-0.8,2.7-0.8c1.2,0,2.2,0.5,3,1.4s1.2,2.1,1.2,3.5
			c0,1-0.2,1.9-0.7,2.7s-1.1,1.3-1.9,1.8l-1.1-1.7c0.7-0.4,1.2-0.8,1.5-1.3s0.5-1,0.5-1.6c0-0.8-0.2-1.4-0.7-1.9s-1.1-0.7-1.8-0.7
			c-0.6,0-1.1,0.2-1.6,0.6s-0.8,1-1.2,1.7L166.6,148.1z" />
		<path class="st0" d="M157,156.3h17.2v9h-1.9v-7h-4.9v7h-1.9v-7h-6.6v7H157V156.3z" />
		<path class="st0" d="M157,182.8h15.2v-4.9h1.9v11.7h-1.9v-4.8H157V182.8z" />
		<path class="st0" d="M174.9,198.1l-17.8,7.8v-2.2l5.3-2.2v-6.7l-5.3-2.2v-2.2L174.9,198.1z M170.3,198.1l-6.3-2.7v5.5L170.3,198.1z
			" />
		<path class="st0" d="M157,209.8h17.2v4c0,1.1-0.1,2-0.2,2.5s-0.3,1-0.7,1.4c-0.4,0.5-0.9,0.9-1.6,1.2s-1.4,0.4-2.2,0.4
			c-1.4,0-2.5-0.4-3.2-1.2s-1.1-1.9-1.1-3.5v-0.4L157,221v-2.6l8.2-6.3v-0.3H157V209.8z M172.5,211.8h-5.7v1.6c0,1.6,0.2,2.7,0.6,3.2
			s1.1,0.8,2.2,0.8c1.1,0,1.9-0.3,2.3-0.8s0.7-1.6,0.7-3.2v-1.6H172.5z" />
		<path class="st0" d="M157,227.8h15.2V223h1.9v11.7h-1.9v-4.8H157V227.8z" />
	</g>
	<g id="title" clip-path="url(#title_mask)">
		<path class="st0" d="M51.7,104.8l-8.9,15.9c-13.6-3.6-24.1-10.8-31.6-21.7C3.7,88.2,0,75.7,0,61.6C0,43.1,6,28.2,18,17
			S44.9,0.2,62.6,0.2c19.4,0,34.8,5.6,46.3,16.9c11.5,11.2,17.2,25.9,17.2,44c0,16-4.4,29.4-13.1,40.3h11.2v15.8H84.9v-15.8
			c8-3.5,14.1-8.9,18.5-16.3c4.4-7.3,6.5-15,6.5-23.1c0-12.2-4.4-22.2-13.2-30S76.9,20.3,63.5,20.3c-13.8,0-25,4.2-33.8,12.6
			C21,41.3,16.6,51.2,16.6,62.7c0,9.4,3,18,9.1,25.8S40.4,101.6,51.7,104.8z" />
		<path class="st0" d="M17.2,159.5h91.7v-13.9h15.3v46.8h-15.3V178h-35v53.2h35v-14.3h15.3v46.8h-15.3v-14H17.2v14H1.9v-46.8h15.3
			v14.3h41.4V178H17.2v14.4H1.9v-46.8h15.3V159.5z" />
		<path class="st0" d="M17.2,304.4h91.7v-15.8h15.3v101.6H87.4v-15.1h21.5v-52.2H72.5v45.4H57.2v-45.4h-40v52.2h22.2v15.1H1.9V288.6
			h15.3V304.4z" />
		<path class="st0" d="M17.2,433.6h91.7v-15.8h15.3v101.6H87.4v-15.1h21.5V452H72.5v45.4H57.2V452h-40v52.2h22.2v15.1H1.9V417.8h15.3
			V433.6z" />
		<path class="st0" d="M1.9,551.2h44.4v15.3H35.5c-13.3,7.3-20,16.9-20,28.7c0,6,1.8,11.1,5.5,15.3s8.5,6.2,14.5,6.2
			c5.8,0,10-1.7,12.5-5.1c2.5-3.4,5.1-9.8,7.6-19.2c2.9-11,5.7-19.1,8.3-24.3c2.6-5.3,6.3-9.5,11.2-12.6c4.8-3.1,10.6-4.7,17.2-4.7
			c10.3,0,18.4,3.4,24.6,10.2c6.1,6.8,9.2,15.4,9.2,25.7c0,9.8-3.2,18.9-9.5,27.2h8.2v14.9H87.7V614h8.5c9.4-6.3,14.2-14.9,14.2-25.9
			c0-6.7-1.5-11.8-4.6-15.4c-3.1-3.6-6.8-5.4-11-5.4c-3.3,0-6.2,0.9-8.7,2.7s-4.3,4.1-5.5,6.9c-1.2,2.8-2.8,8.3-4.9,16.6
			c-2.8,10.8-5.4,18.6-7.9,23.5c-2.4,4.9-6.5,9-12.2,12.6c-5.7,3.5-12.2,5.3-19.6,5.3c-10.4,0-19-3.7-25.8-11
			C3.4,616.5,0,607.4,0,596.6c0-11.1,4-21.2,12-30.1H1.9V551.2z" />
		<path class="st0" d="M17.2,674.9h91.7v-15.8h15.3v101.6H87.4v-15.1h21.5v-52.2H72.5v45.4H57.2v-45.4h-40v52.2h22.2v15.1H1.9V659.1
			h15.3V674.9z" />
	</g>
</svg>
