<?xml version="1.0" encoding="utf-8"?>
<svg version="1.1" xmlns="http://www.w3.org/2000/svg" xmlns:xlink="http://www.w3.org/1999/xlink" x="0px" y="0px" viewBox="0 0 156 740" style="enable-background:new 0 0 156 740;" xml:space="preserve">
	<style type="text/css">
		.st0{fill:#FFD700;}
		.st1{fill:none;}
	</style>
	<defs>
		<clipPath id="title_mask" class="mask">
			<rect width="1123" height="740" />
		</clipPath>

		<clipPath id="row1_mask" class="mask">
			<rect x="133" width="23" height="578" />
		</clipPath>
	</defs>
	<g id="title" clip-path="url(#title_mask)">
		<path class="st0" d="M45.9,93L38,107.1c-12-3.2-21.4-9.6-28-19.2C3.3,78.2,0,67.1,0,54.5C0,38,5.3,24.8,16,14.9S39.9,0,55.6,0
			c17.2,0,31,5,41.2,15s15.3,23,15.3,39.1c0,14.2-3.9,26.2-11.6,35.9h9.9v14.1H75.5V90c7.1-3.1,12.6-7.9,16.4-14.5
			c3.9-6.5,5.8-13.4,5.8-20.5c0-10.8-3.9-19.7-11.7-26.7S68.3,17.9,56.4,17.9c-12.2,0-22.2,3.7-30,11.2c-7.8,7.4-11.6,16.3-11.6,26.5
			c0,8.4,2.7,16,8.1,22.9S35.9,90.2,45.9,93z" />
		<path class="st0" d="M15.3,154.4h81.5v-12.3h13.6v41.6H96.8v-12.8H65.7v47.3h31.1v-12.7h13.6v41.6H96.8v-12.4H15.3v12.4H1.7v-41.6
			h13.6v12.7h36.8v-47.3H15.3v12.8H1.7v-41.6h13.6V154.4z" />
		<path class="st0" d="M15.3,296h81.5v-14.1h13.6v90.3H77.7v-13.4h19.1v-46.4H64.5v40.4H50.9v-40.4H15.3v46.4h19.8v13.4H1.7v-90.3
			h13.6V296z" />
		<path class="st0" d="M15.3,423.6h81.5v-14.1h13.6v90.3H77.7v-13.4h19.1V440H64.5v40.4H50.9V440H15.3v46.4h19.8v13.4H1.7v-90.3h13.6
			V423.6z" />
		<path class="st0" d="M1.7,541h39.5v13.6h-9.6c-11.8,6.5-17.7,15-17.7,25.5c0,5.4,1.6,9.9,4.9,13.6c3.3,3.7,7.6,5.5,12.9,5.5
			c5.2,0,8.9-1.5,11.1-4.5c2.3-3,4.5-8.7,6.8-17.1c2.6-9.7,5.1-17,7.4-21.6c2.3-4.7,5.6-8.4,9.9-11.2s9.4-4.2,15.3-4.2
			c9.1,0,16.4,3,21.8,9.1c5.4,6.1,8.2,13.7,8.2,22.9c0,8.7-2.8,16.8-8.4,24.2h7.3V610H78v-13.3h7.6c8.4-5.6,12.6-13.3,12.6-23
			c0-5.9-1.4-10.5-4.1-13.7s-6-4.8-9.8-4.8c-2.9,0-5.5,0.8-7.7,2.4c-2.2,1.6-3.8,3.7-4.9,6.2c-1,2.5-2.5,7.4-4.4,14.8
			c-2.5,9.6-4.8,16.5-7,20.9c-2.2,4.3-5.8,8-10.8,11.2c-5.1,3.1-10.9,4.7-17.4,4.7c-9.3,0-16.9-3.3-23-9.8C3,599,0,590.9,0,581.3
			c0-9.9,3.6-18.8,10.7-26.7h-9C1.7,554.6,1.7,541,1.7,541z" />
		<path class="st0" d="M15.3,663.7h81.5v-14.1h13.6V740H77.7v-13.4h19.1v-46.4H64.5v40.4H50.9v-40.4H15.3v46.4h19.8V740H1.7v-90.3
			h13.6V663.7z" />
	</g>
	<g id="row1" clip-path="url(#row1_mask)">
		<path class="st0" d="M133.7,9.8h19V3.7h2.4v14.7h-2.4v-6h-19V9.8z" />
		<path class="st0" d="M133.7,23.6h21.4v2.5h-8.2v11.4h8.2v2.6h-21.4v-2.6h10.8V26.2h-10.8V23.6z" />
		<path class="st0" d="M133.7,47.8h21.4v11.3h-2.3v-8.8h-6.2v8.8h-2.4v-8.8H136v8.8h-2.4L133.7,47.8L133.7,47.8z" />
		<path class="st0" d="M133.7,77.1h21.4v11.3h-2.3v-8.8h-6.2v8.8h-2.4v-8.8H136v8.8h-2.4L133.7,77.1L133.7,77.1z" />
		<path class="st0" d="M145.6,102.5c-0.6,1.4-1.4,2.4-2.4,3.2c-1,0.7-2.2,1.1-3.5,1.1c-2,0-3.6-0.6-4.8-1.9s-1.8-2.9-1.8-5
			c0-1.7,0.4-3.1,1.3-4.2c0.9-1.1,2.1-1.9,3.7-2.3l1.1,2.3c-1.3,0.3-2.3,0.8-3,1.5s-1,1.6-1,2.7c0,1.3,0.4,2.3,1.1,3.1
			c0.7,0.8,1.7,1.2,2.9,1.2c1,0,1.8-0.3,2.5-0.8c0.7-0.6,1.3-1.4,1.8-2.5l1.1-2.6c0.6-1.4,1.4-2.5,2.3-3.2c0.9-0.7,2.1-1,3.4-1
			c1.5,0,2.8,0.6,3.8,1.7s1.5,2.6,1.5,4.3c0,1.3-0.3,2.4-0.8,3.3s-1.4,1.7-2.4,2.2l-1.3-2.1c0.8-0.5,1.4-1,1.9-1.6
			c0.4-0.6,0.6-1.3,0.6-2c0-1-0.3-1.7-0.9-2.4s-1.3-0.9-2.2-0.9c-0.8,0-1.4,0.2-2,0.7s-1,1.2-1.5,2.2L145.6,102.5z" />
		<path class="st0" d="M145.6,120.7c-0.6,1.4-1.4,2.4-2.4,3.2c-1,0.7-2.2,1.1-3.5,1.1c-2,0-3.6-0.6-4.8-1.9s-1.8-2.9-1.8-5
			c0-1.7,0.4-3.1,1.3-4.2c0.9-1.1,2.1-1.9,3.7-2.3l1.1,2.3c-1.3,0.3-2.3,0.8-3,1.5s-1,1.6-1,2.7c0,1.3,0.4,2.3,1.1,3.1
			c0.7,0.8,1.7,1.2,2.9,1.2c1,0,1.8-0.3,2.5-0.8c0.7-0.6,1.3-1.4,1.8-2.5l1.1-2.6c0.6-1.4,1.4-2.5,2.3-3.2c0.9-0.7,2.1-1,3.4-1
			c1.5,0,2.8,0.6,3.8,1.7s1.5,2.6,1.5,4.3c0,1.3-0.3,2.4-0.8,3.3s-1.4,1.7-2.4,2.2l-1.3-2.1c0.8-0.5,1.4-1,1.9-1.6
			c0.4-0.6,0.6-1.3,0.6-2c0-1-0.3-1.7-0.9-2.4s-1.3-0.9-2.2-0.9c-0.8,0-1.4,0.2-2,0.7s-1,1.2-1.5,2.2L145.6,120.7z" />
		<path class="st0" d="M133.7,131h21.4v11.3h-2.3v-8.8h-6.2v8.8h-2.4v-8.8H136v8.8h-2.4L133.7,131L133.7,131z" />
		<path class="st0" d="M133.7,149H156l-17.1,15.7h16.3v2.4h-22.3l16.9-15.7h-16.1L133.7,149L133.7,149z" />
		<path class="st0" d="M150,192c1.1-1,1.9-2.1,2.5-3.3c0.5-1.2,0.8-2.4,0.8-3.9c0-1.1-0.2-2.2-0.7-3.3s-1.1-2-1.9-2.8
			c-0.8-0.8-1.8-1.4-2.8-1.8c-1.1-0.4-2.2-0.6-3.5-0.6c-1,0-1.9,0.1-2.8,0.4s-1.6,0.6-2.3,1.1c-1.2,0.9-2.2,1.9-2.8,3.2
			c-0.7,1.3-1,2.6-1,4.1c0,1.4,0.3,2.6,0.8,3.8s1.4,2.2,2.5,3.2h-3.4c-0.8-1.1-1.4-2.2-1.8-3.4c-0.4-1.2-0.6-2.5-0.6-3.8
			c0-1.1,0.2-2.2,0.5-3.3s0.8-2.1,1.5-3c1.1-1.6,2.4-2.8,4-3.6s3.3-1.2,5.2-1.2c1.7,0,3.2,0.3,4.5,0.8c1.4,0.6,2.6,1.4,3.7,2.5
			c1.1,1.1,1.8,2.3,2.4,3.6c0.5,1.3,0.8,2.8,0.8,4.4c0,1.2-0.2,2.4-0.6,3.6c-0.4,1.2-1,2.3-1.8,3.4L150,192L150,192z" />
		<path class="st0" d="M133.7,198.9h21.4v11.3h-2.3v-8.8h-6.2v8.8h-2.4v-8.8H136v8.8h-2.4L133.7,198.9L133.7,198.9z" />
		<path class="st0" d="M144.4,250.1c-1.5,0-3-0.3-4.3-0.9c-1.4-0.6-2.6-1.4-3.6-2.5c-1.1-1.1-1.9-2.3-2.4-3.7
			c-0.6-1.4-0.9-2.9-0.9-4.4s0.3-3,0.9-4.4c0.6-1.4,1.4-2.6,2.4-3.7c1.1-1.1,2.3-1.9,3.6-2.5s2.8-0.9,4.3-0.9s3,0.3,4.3,0.9
			c1.4,0.6,2.6,1.4,3.6,2.5s1.9,2.3,2.4,3.7s0.8,2.9,0.8,4.4s-0.3,3-0.8,4.4s-1.4,2.7-2.4,3.7c-1.1,1.1-2.3,1.9-3.6,2.5
			C147.4,249.8,145.9,250.1,144.4,250.1z M135.5,238.6c0,1.2,0.2,2.3,0.7,3.4c0.4,1.1,1.1,2,1.9,2.9c0.8,0.8,1.8,1.5,2.9,1.9
			c1.1,0.4,2.2,0.7,3.4,0.7s2.3-0.2,3.4-0.7c1.1-0.4,2-1.1,2.9-1.9c0.8-0.8,1.5-1.8,1.9-2.9s0.7-2.2,0.7-3.4s-0.2-2.3-0.7-3.4
			c-0.4-1.1-1.1-2-1.9-2.8c-0.8-0.8-1.8-1.5-2.9-1.9c-1.1-0.4-2.2-0.7-3.4-0.7s-2.3,0.2-3.4,0.7s-2,1.1-2.9,1.9
			c-0.9,0.9-1.5,1.8-1.9,2.9S135.5,237.5,135.5,238.6z" />
		<path class="st0" d="M133.7,256.6h21.4v11.3h-2.3v-8.8h-6.2v8.8h-2.4v-8.8h-10.6v-2.5H133.7z" />
		<path class="st0" d="M133.7,285.5h21.4v4.5c0,1.6-0.1,2.7-0.2,3.5c-0.2,0.7-0.4,1.4-0.8,1.9c-0.5,0.7-1.2,1.2-2,1.6
			s-1.7,0.6-2.6,0.6c-1.1,0-2.1-0.3-2.8-0.8c-0.8-0.5-1.3-1.3-1.6-2.4c-0.2,1.3-0.8,2.3-1.7,3s-2.1,1.1-3.6,1.1
			c-0.9,0-1.7-0.2-2.5-0.5s-1.5-0.7-2-1.3c-0.6-0.6-1-1.4-1.3-2.2s-0.4-2.4-0.4-4.5v-4.5H133.7z M143.7,287.9h-7.8v2
			c0,1.4,0.1,2.3,0.2,2.9c0.1,0.6,0.3,1.1,0.6,1.4c0.3,0.4,0.7,0.8,1.3,1s1.2,0.4,1.8,0.4c0.8,0,1.5-0.2,2-0.5s1-0.7,1.3-1.3
			c0.2-0.3,0.4-0.7,0.4-1.2s0.1-1.1,0.1-2.1v-0.7L143.7,287.9L143.7,287.9z M152.9,287.9h-7.2v2c0,1.8,0.3,3.1,0.8,3.8
			s1.4,1.1,2.7,1.1c1.4,0,2.3-0.3,2.9-1c0.6-0.7,0.8-2,0.8-3.9V287.9z" />
		<path class="st0" d="M156,311.5l-22.3,9.8v-2.8l6.6-2.8v-8.4l-6.6-2.8v-2.8L156,311.5z M150.4,311.5l-7.9-3.4v6.8L150.4,311.5z" />
		<path class="st0" d="M133.7,326.2h21.4v2.5h-9.5l9.5,9v3l-9.7-9.2l-11.8,10.1v-3.3l11.5-9.7h-11.5v-2.4H133.7z" />
		<path class="st0" d="M133.7,346.6h21.4v11.3h-2.3v-8.8h-6.2v8.8h-2.4v-8.8H136v8.8h-2.4L133.7,346.6L133.7,346.6z" />
		<path class="st0" d="M150,393.3c1.1-1,1.9-2.1,2.5-3.3c0.5-1.2,0.8-2.4,0.8-3.9c0-1.1-0.2-2.2-0.7-3.3c-0.5-1.1-1.1-2-1.9-2.8
			c-0.8-0.8-1.8-1.4-2.8-1.8c-1.1-0.4-2.2-0.6-3.5-0.6c-1,0-1.9,0.1-2.8,0.4s-1.6,0.6-2.3,1.1c-1.2,0.9-2.2,1.9-2.8,3.2
			c-0.7,1.3-1,2.6-1,4.1c0,1.4,0.3,2.6,0.8,3.8s1.4,2.2,2.5,3.2h-3.4c-0.8-1.1-1.4-2.2-1.8-3.4c-0.4-1.2-0.6-2.5-0.6-3.8
			c0-1.1,0.2-2.2,0.5-3.3c0.3-1.1,0.8-2.1,1.5-3c1.1-1.6,2.4-2.8,4-3.6s3.3-1.2,5.2-1.2c1.7,0,3.2,0.3,4.5,0.8
			c1.4,0.6,2.6,1.4,3.7,2.5c1.1,1.1,1.8,2.3,2.4,3.6c0.5,1.3,0.8,2.8,0.8,4.4c0,1.2-0.2,2.4-0.6,3.6c-0.4,1.2-1,2.3-1.8,3.4H150
			V393.3z" />
		<path class="st0" d="M133.7,400.2h21.4v2.5h-8.2v11.4h8.2v2.6h-21.4v-2.6h10.8v-11.4h-10.8V400.2z" />
		<path class="st0" d="M133.7,424.4h21.4v11.3h-2.3v-8.8h-6.2v8.8h-2.4v-8.8H136v8.8h-2.4L133.7,424.4L133.7,424.4z" />
		<path class="st0" d="M133.7,442.4h21.4v11.3h-2.3v-8.8h-6.2v8.8h-2.4v-8.8H136v8.8h-2.4L133.7,442.4L133.7,442.4z" />
		<path class="st0" d="M145.6,467.8c-0.6,1.4-1.4,2.4-2.4,3.2c-1,0.7-2.2,1.1-3.5,1.1c-2,0-3.6-0.6-4.8-1.9s-1.8-2.9-1.8-5
			c0-1.7,0.4-3.1,1.3-4.2c0.9-1.1,2.1-1.9,3.7-2.3l1.1,2.3c-1.3,0.3-2.3,0.8-3,1.5s-1,1.6-1,2.7c0,1.3,0.4,2.3,1.1,3.1
			c0.7,0.8,1.7,1.2,2.9,1.2c1,0,1.8-0.3,2.5-0.8c0.7-0.6,1.3-1.4,1.8-2.5l1.1-2.6c0.6-1.4,1.4-2.5,2.3-3.2c0.9-0.7,2.1-1,3.4-1
			c1.5,0,2.8,0.6,3.8,1.7s1.5,2.6,1.5,4.3c0,1.3-0.3,2.4-0.8,3.3s-1.4,1.7-2.4,2.2l-1.3-2.1c0.8-0.5,1.4-1,1.9-1.6
			c0.4-0.6,0.6-1.3,0.6-2c0-1-0.3-1.7-0.9-2.4s-1.3-0.9-2.2-0.9c-0.8,0-1.4,0.2-2,0.7s-1,1.2-1.5,2.2L145.6,467.8z" />
		<path class="st0" d="M133.7,478.1h21.4v11.3h-2.3v-8.8h-6.2v8.8h-2.4v-8.8H136v8.8h-2.4L133.7,478.1L133.7,478.1z" />
		<path class="st0" d="M133.7,511.1h19V505h2.4v14.7h-2.4v-6h-19V511.1z" />
		<path class="st0" d="M156,530.1l-22.3,9.8v-2.8l6.6-2.8V526l-6.6-2.8v-2.8L156,530.1z M150.4,530.1l-7.9-3.4v6.8L150.4,530.1z" />
		<path class="st0" d="M133.7,544.8h21.4v5c0,1.4-0.1,2.5-0.2,3.2c-0.2,0.7-0.4,1.3-0.8,1.8c-0.5,0.6-1.2,1.1-2,1.5s-1.8,0.5-2.8,0.5
			c-1.8,0-3.1-0.5-4-1.5s-1.4-2.4-1.4-4.3v-0.5l-10.2,8.2v-3.2l10.2-7.8v-0.4h-10.2V544.8z M153,547.3h-7.2v1.9c0,2,0.3,3.3,0.8,4
			s1.4,1,2.7,1c1.4,0,2.3-0.3,2.9-1c0.6-0.7,0.8-2,0.8-4V547.3z" />
		<path class="st0" d="M133.7,567.2h19v-6.1h2.4v14.7h-2.4v-6h-19V567.2z" />
	</g>
</svg>
