<?xml version="1.0" encoding="utf-8"?>
<svg version="1.1" xmlns="http://www.w3.org/2000/svg" xmlns:xlink="http://www.w3.org/1999/xlink" viewBox="0 0 271 480" xml:space="preserve">
	<style type="text/css">
		.st0{fill:#FFD700;}
		.st1{fill:none;}
	</style>
	<defs>
		<clipPath id="title_mask" class="mask">
			<rect x="147" width="123" height="480" />
		</clipPath>
		<clipPath id="row1_mask" class="mask">
			<rect x="96" width="18" height="45" />
		</clipPath>
		<clipPath id="row2_mask" class="mask">
			<rect x="63" width="19" height="109" />
		</clipPath>
		<clipPath id="row3_mask" class="mask">
			<rect x="32" width="18" height="35" />
		</clipPath>
		<clipPath id="row4_mask" class="mask">
			<rect width="19" height="235" />
		</clipPath>
	</defs>
	<g id="title" clip-path="url(#title_mask)">
		<path class="st0" d="M163.2,41.2h91.7V16h-31.2V0.8h46.5v99.1h-46.5V84.8h31.2V59.6h-91.7v15.9h-15.3v-50h15.3L163.2,41.2
			L163.2,41.2z" />
		<path class="st0" d="M190.9,194.1v-44l-27.7-9.4v14.9h-15.3v-48.2h15.3v14.8l93.2,33.4v-14.8h13.8v62.5h-13.8V188l-93.2,34.2v13.7
			h-15.3V188h15.3v15.2L190.9,194.1z M205.2,189.5l51.2-16.3v-1.7l-51.2-16.9V189.5z" />
		<path class="st0" d="M163.2,273.8h91.7V257h15.3v49.7c0,10.4-0.8,18.6-2.4,24.7s-5,11.1-10.2,15.1c-5.2,4-11.6,6-19.4,6
			c-16.2,0-26.3-8.4-30.5-25.2l-44.5,21.6v14.9h-15.3v-26.5l57.1-27.8v-17.2h-41.8v15.6h-15.3V257h15.3L163.2,273.8L163.2,273.8z
			 M220.3,292.2v14.4c0,7,0.5,12.1,1.4,15.4s2.8,6,5.5,8.1c2.8,2.1,6.5,3.2,11.2,3.2c4,0,7.4-1.1,10.1-3.2c2.8-2.1,4.5-4.8,5.2-7.9
			s1.1-7.9,1.1-14.4v-15.6H220.3z" />
		<path class="st0" d="M163.2,419.3h91.7v-25.2h-31.2V379h46.5v99h-46.5v-15.1h31.2v-25.1h-91.7v15.9h-15.3v-50h15.3L163.2,419.3
			L163.2,419.3z" />
	</g>
	<g id="row1" clip-path="url(#row1_mask)">
		<path class="st0" d="M96.5,4.9h15.2V0h1.9v11.7h-1.9V6.9H96.5V4.9z" />
		<path class="st0" d="M96.5,16h17.2v2H107v9.1h6.6v2.1H96.5v-2.1h8.6V18h-8.6V16z" />
		<path class="st0" d="M96.5,35.4h17.2v9h-1.9v-7h-4.9v7H105v-7h-6.6v7h-1.9C96.5,44.4,96.5,35.4,96.5,35.4z" />
	</g>
	<g id="row2" clip-path="url(#row2_mask)">
		<path class="st0" d="M64.5,1.9h17.2v9h-1.9v-7h-4.9v7H73v-7h-6.6v7h-1.9C64.5,10.9,64.5,1.9,64.5,1.9z" />
		<path class="st0" d="M74,22.2c-0.5,1.1-1.1,2-1.9,2.5s-1.7,0.8-2.8,0.8c-1.6,0-2.8-0.5-3.8-1.5s-1.4-2.3-1.4-4c0-1.4,0.3-2.5,1-3.4
			s1.7-1.5,2.9-1.9l0.9,1.9c-1,0.2-1.8,0.7-2.4,1.2s-0.8,1.3-0.8,2.2c0,1,0.3,1.9,0.9,2.5s1.4,0.9,2.3,0.9c0.8,0,1.4-0.2,2-0.7
			s1-1.1,1.4-2l0.9-2.1c0.5-1.1,1.1-2,1.8-2.5s1.6-0.8,2.7-0.8c1.2,0,2.2,0.5,3,1.4c0.8,0.9,1.2,2.1,1.2,3.5c0,1-0.2,1.9-0.7,2.7
			s-1.1,1.3-1.9,1.8L78.4,23c0.7-0.4,1.2-0.8,1.5-1.3s0.5-1,0.5-1.6c0-0.8-0.2-1.4-0.7-1.9s-1.1-0.7-1.8-0.7c-0.6,0-1.1,0.2-1.6,0.6
			s-0.8,1-1.2,1.7L74,22.2z" />
		<path class="st0" d="M74,36.8c-0.5,1.1-1.1,2-1.9,2.5s-1.7,0.8-2.8,0.8c-1.6,0-2.8-0.5-3.8-1.5s-1.4-2.3-1.4-4c0-1.4,0.3-2.5,1-3.4
			s1.7-1.5,2.9-1.9l0.9,1.9c-1,0.2-1.8,0.7-2.4,1.2c-0.6,0.5-0.8,1.3-0.8,2.2c0,1,0.3,1.9,0.9,2.5S68,38,68.9,38c0.8,0,1.4-0.2,2-0.7
			s1-1.1,1.4-2l0.9-2.1c0.5-1.1,1.1-2,1.8-2.5s1.6-0.8,2.7-0.8c1.2,0,2.2,0.5,3,1.4s1.2,2.1,1.2,3.5c0,1-0.2,1.9-0.7,2.7
			s-1.1,1.3-1.9,1.8l-1.1-1.7c0.7-0.4,1.2-0.8,1.5-1.3s0.5-1,0.5-1.6c0-0.8-0.2-1.4-0.7-1.9s-1.1-0.7-1.8-0.7c-0.6,0-1.1,0.2-1.6,0.6
			s-0.8,1-1.2,1.7L74,36.8z" />
		<path class="st0" d="M64.5,45.1h17.2v9h-1.9v-7h-4.9v7H73v-7h-6.6v7h-1.9C64.5,54.1,64.5,45.1,64.5,45.1z" />
		<path class="st0" d="M64.5,59.6h17.8L68.6,72.1h13V74H63.8l13.6-12.6H64.5V59.6z" />
		<path class="st0" d="M77.5,94c0.9-0.8,1.5-1.7,2-2.6s0.6-2,0.6-3.1c0-0.9-0.2-1.8-0.6-2.7S78.6,84,78,83.4
			c-0.7-0.7-1.4-1.1-2.3-1.5S74,81.5,73,81.5c-0.8,0-1.5,0.1-2.2,0.3s-1.3,0.5-1.9,0.9c-1,0.7-1.7,1.5-2.3,2.5s-0.8,2.1-0.8,3.3
			c0,1.1,0.2,2.1,0.7,3s1.1,1.8,2,2.6h-2.7c-0.6-0.9-1.1-1.8-1.4-2.7s-0.5-2-0.5-3c0-0.9,0.1-1.8,0.4-2.6s0.7-1.7,1.2-2.4
			c0.9-1.2,1.9-2.2,3.2-2.9s2.7-1,4.2-1c1.3,0,2.5,0.2,3.6,0.7s2.1,1.1,2.9,2s1.5,1.8,1.9,2.9s0.6,2.2,0.6,3.5c0,1-0.2,2-0.5,2.9
			s-0.8,1.8-1.4,2.8h-2.5V94z" />
		<path class="st0" d="M64.5,99.6h17.2v9h-1.9v-7h-4.9v7H73v-7h-6.6v7h-1.9C64.5,108.6,64.5,99.6,64.5,99.6z" />
	</g>
	<g id="row3" clip-path="url(#row3_mask)">
		<path class="st0" d="M41,19.4c-1.2,0-2.4-0.2-3.5-0.7s-2.1-1.1-2.9-2c-0.8-0.9-1.5-1.9-2-3S32,11.4,32,10.2s0.2-2.4,0.7-3.5
			s1.1-2.1,2-3s1.8-1.5,2.9-2C38.7,1.2,39.8,1,41.1,1c1.2,0,2.4,0.2,3.5,0.7s2.1,1.1,2.9,2c0.8,0.9,1.5,1.9,1.9,3
			C49.8,7.9,50,9,50,10.2s-0.2,2.4-0.7,3.5s-1.1,2.1-1.9,3c-0.8,0.9-1.8,1.5-2.9,2C43.4,19.2,42.2,19.4,41,19.4z M33.9,10.2
			c0,0.9,0.2,1.8,0.5,2.7s0.9,1.6,1.6,2.3c0.7,0.7,1.4,1.2,2.3,1.5c0.9,0.4,1.8,0.5,2.7,0.5c1,0,1.9-0.2,2.7-0.5
			c0.9-0.4,1.6-0.9,2.3-1.5c0.7-0.7,1.2-1.4,1.5-2.3s0.5-1.7,0.5-2.7s-0.2-1.9-0.5-2.7c-0.4-0.9-0.9-1.6-1.5-2.3
			c-0.7-0.7-1.4-1.2-2.3-1.5C42.9,3.4,42,3.2,41,3.2s-1.9,0.2-2.7,0.5S36.7,4.6,36,5.2c-0.7,0.7-1.2,1.5-1.6,2.3
			C34.1,8.4,33.9,9.3,33.9,10.2z" />
		<path class="st0" d="M32.5,24.7h17.2v9h-1.9v-7h-4.9v7H41v-7h-8.5C32.5,26.7,32.5,24.7,32.5,24.7z" />
	</g>
	<g id="row4" clip-path="url(#row4_mask)">
		<path class="st0" d="M0.5,1.9h17.2v3.6c0,1.3-0.1,2.2-0.2,2.8s-0.3,1.1-0.7,1.5c-0.4,0.5-0.9,1-1.6,1.3s-1.3,0.5-2.1,0.5
			c-0.9,0-1.7-0.2-2.3-0.7S9.8,9.8,9.5,9c-0.2,1-0.6,1.8-1.4,2.4s-1.7,0.9-2.9,0.9c-0.7,0-1.3-0.1-2-0.4s-1.2-0.6-1.6-1
			c-0.5-0.5-0.8-1.1-1-1.8s-0.1-2-0.1-3.7V1.9z M8.5,3.8H2.2v1.6c0,1.1,0,1.9,0.1,2.3s0.2,0.9,0.4,1.2c0.2,0.4,0.6,0.6,1,0.8
			S4.6,10,5.2,10C6,10.1,6.5,9.9,7,9.7s0.8-0.6,1-1.1C8.2,8.3,8.3,8,8.4,7.7S8.5,6.8,8.5,6V5.4V3.8z M15.8,3.8h-5.7v1.6
			c0,1.5,0.2,2.5,0.6,3.1s1.1,0.9,2.1,0.9c1.1,0,1.9-0.3,2.3-0.8s0.7-1.6,0.7-3.1C15.8,5.5,15.8,3.8,15.8,3.8z" />
		<path class="st0" d="M18.3,22.8L0.5,30.6v-2.2l5.3-2.2v-6.7l-5.3-2.2V15L18.3,22.8z M13.8,22.8L7.5,20v5.5L13.8,22.8z" />
		<path class="st0" d="M0.5,34.6h17.2v2H10l7.6,7.2v2.4l-7.7-7.4l-9.4,8.1v-2.6l9.2-7.7H0.5V34.6z" />
		<path class="st0" d="M0.5,50.9h17.2v9h-1.9v-7h-4.9v7h-2v-7H2.4v7H0.5V50.9z" />
		<path class="st0" d="M13.5,88.3c0.9-0.8,1.5-1.7,2-2.6s0.6-2,0.6-3.1c0-0.9-0.2-1.8-0.6-2.7s-0.9-1.6-1.5-2.2
			c-0.7-0.7-1.4-1.1-2.3-1.5S10,75.7,9,75.7c-0.8,0-1.5,0.1-2.2,0.3s-1.3,0.5-1.9,0.9c-1,0.7-1.7,1.5-2.3,2.5s-0.8,2.1-0.8,3.3
			c0,1.1,0.2,2.1,0.7,3s1.1,1.8,2,2.6H1.9c-0.6-0.9-1.1-1.8-1.4-2.7s-0.5-2-0.5-3c0-0.9,0.1-1.8,0.4-2.6s0.7-1.7,1.2-2.4
			c0.9-1.2,1.9-2.2,3.2-2.9s2.7-1,4.2-1c1.3,0,2.5,0.2,3.6,0.7s2.1,1.1,2.9,2s1.5,1.8,1.9,2.9s0.6,2.2,0.6,3.5c0,1-0.2,2-0.5,2.9
			s-0.8,1.8-1.4,2.8h-2.6V88.3z" />
		<path class="st0" d="M0.5,93.8h17.2v2H11v9.1h6.6v2.1H0.5v-2h8.6v-9.1H0.5V93.8z" />
		<path class="st0" d="M0.5,113.2h17.2v9h-1.9v-7h-4.9v7h-2v-7H2.4v7H0.5V113.2z" />
		<path class="st0" d="M0.5,127.7h17.2v9h-1.9v-7h-4.9v7h-2v-7H2.4v7H0.5V127.7z" />
		<path class="st0" d="M10,148.1c-0.5,1.1-1.1,2-1.9,2.5s-1.7,0.8-2.8,0.8c-1.6,0-2.8-0.5-3.8-1.5S0,147.6,0,146c0-1.4,0.3-2.5,1-3.4
			s1.7-1.5,2.9-1.9l0.9,1.9c-1,0.2-1.8,0.7-2.4,1.2s-0.8,1.3-0.8,2.2c0,1,0.3,1.9,0.9,2.5s1.4,0.9,2.3,0.9c0.8,0,1.4-0.2,2-0.7
			s1-1.1,1.4-2l0.9-2.1c0.5-1.1,1.1-2,1.8-2.5s1.6-0.8,2.7-0.8c1.2,0,2.2,0.5,3,1.4s1.2,2.1,1.2,3.5c0,1-0.2,1.9-0.7,2.7
			s-1.1,1.3-1.9,1.8l-1.1-1.7c0.7-0.4,1.2-0.8,1.5-1.3s0.5-1,0.5-1.6c0-0.8-0.2-1.4-0.7-1.9s-1.1-0.7-1.8-0.7c-0.6,0-1.1,0.2-1.6,0.6
			s-0.8,1-1.2,1.7L10,148.1z" />
		<path class="st0" d="M0.5,156.3h17.2v9h-1.9v-7h-4.9v7h-2v-7H2.4v7H0.5V156.3z" />
		<path class="st0" d="M0.5,182.8h15.2v-4.9h1.9v11.7h-1.9v-4.8H0.5V182.8z" />
		<path class="st0" d="M18.3,198.1l-17.8,7.8v-2.2l5.3-2.2v-6.7l-5.3-2.2v-2.2L18.3,198.1z M13.8,198.1l-6.3-2.7v5.5L13.8,198.1z" />
		<path class="st0" d="M0.5,209.8h17.2v4c0,1.1-0.1,2-0.2,2.5s-0.3,1-0.7,1.4c-0.4,0.5-0.9,0.9-1.6,1.2s-1.4,0.4-2.2,0.4
			c-1.4,0-2.5-0.4-3.2-1.2s-1.1-1.9-1.1-3.5v-0.4L0.5,221v-2.6l8.2-6.3v-0.3H0.5V209.8z M15.9,211.8h-5.7v1.6c0,1.6,0.2,2.7,0.6,3.2
			s1.1,0.8,2.2,0.8s1.9-0.3,2.3-0.8s0.7-1.6,0.7-3.2v-1.6H15.9z" />
		<path class="st0" d="M0.5,227.8h15.2V223h1.9v11.7h-1.9v-4.8H0.5V227.8z" />
	</g>
</svg>
