<?xml version="1.0" encoding="utf-8"?>
<svg version="1.1" id="レイヤー_1" xmlns="http://www.w3.org/2000/svg" xmlns:xlink="http://www.w3.org/1999/xlink" x="0px" y="0px" viewBox="0 0 154 573" style="enable-background:new 0 0 154 573;" xml:space="preserve">
	<style type="text/css">
		.st0{fill:#FFD700;}
		.st1{fill:none;}
	</style>
	<defs>
		<clipPath id="title_mask" class="mask">
			<rect x="44" width="109" height="463"/>
		</clipPath>

		<clipPath id="row1_mask" class="mask">
			<rect x="0" width="23" height="573"/>
		</clipPath>
	</defs>
	<g id="title" clip-path="url(#title_mask)">
		<path class="st0" d="M58.4,35.9h81.5V13.4h-27.7V0h41.3v88h-41.3V74.6h27.7V52.3H58.4v14.1H44.8V22h13.6V35.9z"/>
		<path class="st0" d="M83,184.6v-39.2l-24.6-8.3v13.2H44.8v-42.8h13.6v13.1l82.8,29.7v-13.1h12.3v55.5h-12.3v-13.6l-82.8,30.4v12.2
			H44.8v-42.6h13.6v13.5L83,184.6z M95.7,180.5l45.5-14.5v-1.5l-45.5-15.1V180.5z"/>
		<path class="st0" d="M58.4,268.2h81.5v-14.9h13.6v44.1c0,9.2-0.7,16.5-2.1,22c-1.4,5.4-4.5,9.9-9.1,13.4s-10.4,5.3-17.2,5.3
			c-14.4,0-23.4-7.5-27.1-22.4l-39.5,19.2v13.3H44.8v-23.5L95.6,300v-15.3H58.4v13.9H44.8v-45.2h13.6V268.2z M109.1,284.6v12.8
			c0,6.2,0.4,10.8,1.2,13.7c0.8,2.9,2.4,5.4,4.9,7.2c2.5,1.9,5.8,2.8,10,2.8c3.5,0,6.5-1,9-2.9c2.4-1.9,4-4.2,4.6-7
			c0.7-2.8,1-7,1-12.8v-13.9L109.1,284.6L109.1,284.6z"/>
		<path class="st0" d="M58.4,410.4h81.5V388h-27.7v-13.4h41.3v88h-41.3v-13.4h27.7v-22.3H58.4V441H44.8v-44.5h13.6V410.4z"/>
	</g>
	<g id="row1" clip-path="url(#row1_mask)">
		<path class="st0" d="M0.8,6.2h19v-6h2.4v14.7h-2.4v-6h-19C0.8,8.9,0.8,6.2,0.8,6.2z"/>
		<path class="st0" d="M0.8,20.1h21.4v2.5H14V34h8.2v2.6H0.8V34h10.8V22.6H0.8V20.1z"/>
		<path class="st0" d="M0.8,44.3h21.4v11.3H20v-8.8h-6.2v8.8h-2.4v-8.8H3.2v8.8H0.8V44.3z"/>
		<path class="st0" d="M0.8,73.5h21.4v11.3H20V76h-6.2v8.8h-2.4V76H3.2v8.8H0.8V73.5z"/>
		<path class="st0" d="M12.7,99c-0.6,1.4-1.4,2.4-2.4,3.2s-2.2,1.1-3.5,1.1c-2,0-3.6-0.6-4.8-1.9s-1.8-2.9-1.8-5
			c0-1.7,0.4-3.1,1.3-4.2s2.1-1.9,3.7-2.3l1.1,2.3C5,92.5,4,93,3.3,93.7s-1,1.6-1,2.7c0,1.3,0.4,2.3,1.1,3.1s1.7,1.2,2.9,1.2
			c1,0,1.8-0.3,2.5-0.8s1.3-1.4,1.8-2.5l1.1-2.6c0.6-1.4,1.4-2.5,2.3-3.2s2.1-1,3.4-1c1.5,0,2.8,0.6,3.8,1.7s1.5,2.6,1.5,4.3
			c0,1.3-0.3,2.4-0.8,3.3s-1.4,1.7-2.4,2.2l-1.3-2.1c0.8-0.5,1.4-1,1.9-1.6s0.6-1.3,0.6-2c0-1-0.3-1.7-0.9-2.4s-1.3-1-2.3-1
			c-0.8,0-1.4,0.2-2,0.7s-1,1.2-1.5,2.2L12.7,99z"/>
		<path class="st0" d="M12.7,117.2c-0.6,1.4-1.4,2.4-2.4,3.2s-2.2,1.1-3.5,1.1c-2,0-3.6-0.6-4.8-1.9s-1.8-2.9-1.8-5
			c0-1.7,0.4-3.1,1.3-4.2s2.1-1.9,3.7-2.3l1.1,2.3c-1.3,0.3-2.3,0.8-3,1.5s-1,1.6-1,2.7c0,1.3,0.4,2.3,1.1,3.1s1.7,1.2,2.9,1.2
			c1,0,1.8-0.3,2.5-0.8s1.3-1.4,1.8-2.5l1.1-2.6c0.6-1.4,1.4-2.5,2.3-3.2s2.1-1,3.4-1c1.5,0,2.8,0.6,3.8,1.7s1.5,2.6,1.5,4.3
			c0,1.3-0.3,2.4-0.8,3.3s-1.4,1.7-2.4,2.2l-1.3-2.1c0.8-0.5,1.4-1,1.9-1.6s0.6-1.3,0.6-2c0-1-0.3-1.7-0.9-2.4s-1.3-0.9-2.2-0.9
			c-0.8,0-1.4,0.2-2,0.7s-1,1.2-1.5,2.2L12.7,117.2z"/>
		<path class="st0" d="M0.8,127.4h21.4v11.3H20V130h-6.2v8.8h-2.4V130H3.2v8.8H0.8V127.4z"/>
		<path class="st0" d="M0.8,145.4h22.3L6,161.1h16.3v2.4H0l16.9-15.7H0.8V145.4z"/>
		<path class="st0" d="M17.2,188.5c1.1-1,1.9-2.1,2.5-3.3s0.8-2.4,0.8-3.9c0-1.1-0.2-2.2-0.7-3.3s-1.1-2-1.9-2.8s-1.8-1.4-2.8-1.8
			s-2.2-0.6-3.5-0.6c-1,0-1.9,0.1-2.8,0.4s-1.6,0.6-2.3,1.1c-1.2,0.9-2.2,1.9-2.8,3.2s-1,2.6-1,4.1c0,1.4,0.3,2.6,0.8,3.8
			s1.4,2.2,2.5,3.2H2.6c-0.8-1.1-1.4-2.2-1.8-3.4s-0.6-2.5-0.6-3.8c0-1.1,0.2-2.2,0.5-3.3s0.8-2.1,1.5-3c1.1-1.6,2.4-2.8,4-3.6
			s3.3-1.2,5.2-1.2c1.7,0,3.2,0.3,4.5,0.8s2.6,1.4,3.7,2.5s1.8,2.3,2.4,3.6s0.8,2.8,0.8,4.4c0,1.2-0.2,2.4-0.6,3.6s-1,2.3-1.8,3.4
			L17.2,188.5L17.2,188.5z"/>
		<path class="st0" d="M0.8,195.3h21.4v11.3H20v-8.8h-6.2v8.8h-2.4v-8.8H3.2v8.8H0.8V195.3z"/>
		<path class="st0" d="M11.5,246.6c-1.5,0-3-0.3-4.3-0.9c-1.4-0.6-2.6-1.4-3.6-2.5c-1.1-1.1-1.9-2.3-2.4-3.7s-0.9-2.9-0.9-4.4
			s0.3-3,0.9-4.4s1.4-2.6,2.4-3.7c1.1-1.1,2.3-1.9,3.6-2.5s2.8-0.9,4.3-0.9s3,0.3,4.3,0.9s2.6,1.4,3.6,2.5s1.9,2.3,2.4,3.7
			s0.8,2.9,0.8,4.4s-0.3,3-0.8,4.4s-1.4,2.7-2.4,3.7c-1.1,1.1-2.3,1.9-3.6,2.5C14.5,246.3,13.1,246.6,11.5,246.6z M2.7,235.1
			c0,1.2,0.2,2.3,0.7,3.4s1.1,2,1.9,2.9c0.8,0.8,1.8,1.5,2.9,1.9s2.2,0.7,3.4,0.7s2.3-0.2,3.4-0.7c1.1-0.4,2-1.1,2.9-1.9
			c0.8-0.8,1.5-1.8,1.9-2.9s0.7-2.2,0.7-3.4s-0.2-2.3-0.7-3.4c-0.4-1.1-1.1-2-1.9-2.8s-1.8-1.5-2.9-1.9s-2.2-0.7-3.4-0.7
			s-2.3,0.2-3.4,0.7s-2,1.1-2.9,1.9c-0.9,0.9-1.5,1.8-1.9,2.9S2.7,233.9,2.7,235.1z"/>
		<path class="st0" d="M0.8,253h21.4v11.3H20v-8.8h-6.2v8.8h-2.4v-8.8H0.8V253z"/>
		<path class="st0" d="M0.8,281.9h21.4v4.5c0,1.6-0.1,2.7-0.2,3.5c-0.2,0.7-0.4,1.4-0.8,1.9c-0.5,0.7-1.2,1.2-2,1.6s-1.7,0.6-2.6,0.6
			c-1.1,0-2.1-0.3-2.8-0.8c-0.8-0.5-1.3-1.3-1.6-2.4c-0.2,1.3-0.8,2.3-1.7,3s-2.1,1.1-3.6,1.1c-0.9,0-1.7-0.2-2.5-0.5s-1.5-0.7-2-1.3
			c-0.6-0.6-1-1.4-1.3-2.2s-0.4-2.4-0.4-4.5v-4.5H0.8z M10.9,284.4H3.1v2c0,1.4,0.1,2.3,0.2,2.9c0.1,0.6,0.3,1.1,0.6,1.4
			c0.3,0.4,0.7,0.8,1.3,1s1.2,0.4,1.8,0.4c0.8,0,1.5-0.2,2-0.5s1-0.7,1.3-1.3c0.2-0.3,0.4-0.7,0.4-1.2s0.1-1.1,0.1-2.1v-0.7
			L10.9,284.4L10.9,284.4z M20.1,284.4h-7.2v2c0,1.8,0.3,3.1,0.8,3.8s1.4,1.1,2.7,1.1c1.4,0,2.3-0.3,2.9-1s0.8-2,0.8-3.9V284.4z"/>
		<path class="st0" d="M23.1,308l-22.3,9.8V315l6.6-2.8v-8.4L0.8,301v-2.8L23.1,308z M17.5,308l-7.9-3.4v6.8L17.5,308z"/>
		<path class="st0" d="M0.8,322.7h21.4v2.5h-9.5l9.5,9v3l-9.7-9.2L0.8,338.1v-3.3l11.5-9.7H0.8V322.7z"/>
		<path class="st0" d="M0.8,343.1h21.4v11.3H20v-8.8h-6.2v8.8h-2.4v-8.8H3.2v8.8H0.8V343.1z"/>
		<path class="st0" d="M17.2,389.8c1.1-1,1.9-2.1,2.5-3.3s0.8-2.4,0.8-3.9c0-1.1-0.2-2.2-0.7-3.3c-0.5-1.1-1.1-2-1.9-2.8
			s-1.8-1.4-2.8-1.8s-2.2-0.6-3.5-0.6c-1,0-1.9,0.1-2.8,0.4s-1.6,0.6-2.3,1.1c-1.2,0.9-2.2,1.9-2.8,3.2s-1,2.6-1,4.1
			c0,1.4,0.3,2.6,0.8,3.8s1.4,2.2,2.5,3.2H2.6c-0.8-1.1-1.4-2.2-1.8-3.4s-0.6-2.5-0.6-3.8c0-1.1,0.2-2.2,0.5-3.3s0.8-2.1,1.5-3
			c1.1-1.6,2.4-2.8,4-3.6s3.3-1.2,5.2-1.2c1.7,0,3.2,0.3,4.5,0.8s2.6,1.4,3.7,2.5s1.8,2.3,2.4,3.6s0.8,2.8,0.8,4.4
			c0,1.2-0.2,2.4-0.6,3.6s-1,2.3-1.8,3.4h-3.2V389.8z"/>
		<path class="st0" d="M0.8,396.6h21.4v2.5H14v11.4h8.2v2.6H0.8v-2.6h10.8v-11.4H0.8V396.6z"/>
		<path class="st0" d="M0.8,420.8h21.4v11.3H20v-8.8h-6.2v8.8h-2.4v-8.8H3.2v8.8H0.8V420.8z"/>
		<path class="st0" d="M0.8,438.8h21.4v11.3H20v-8.8h-6.2v8.8h-2.4v-8.8H3.2v8.8H0.8V438.8z"/>
		<path class="st0" d="M12.7,464.3c-0.6,1.4-1.4,2.4-2.4,3.2c-1,0.7-2.2,1.1-3.5,1.1c-2,0-3.6-0.6-4.8-1.9s-1.8-2.9-1.8-5
			c0-1.7,0.4-3.1,1.3-4.2s2.1-1.9,3.7-2.3l1.1,2.3c-1.3,0.3-2.3,0.8-3,1.5s-1,1.6-1,2.7c0,1.3,0.4,2.3,1.1,3.1s1.7,1.2,2.9,1.2
			c1,0,1.8-0.3,2.5-0.8c0.7-0.6,1.3-1.4,1.8-2.5l1.1-2.6c0.6-1.4,1.4-2.5,2.3-3.2c0.9-0.7,2.1-1,3.4-1c1.5,0,2.8,0.6,3.8,1.7
			s1.5,2.6,1.5,4.3c0,1.3-0.3,2.4-0.8,3.3s-1.4,1.7-2.4,2.2l-1.3-2.1c0.8-0.5,1.4-1,1.9-1.6s0.6-1.3,0.6-2c0-1-0.3-1.7-0.9-2.4
			s-1.3-0.9-2.2-0.9c-0.8,0-1.4,0.2-2,0.7s-1,1.2-1.5,2.2L12.7,464.3z"/>
		<path class="st0" d="M0.8,474.5h21.4v11.3H20V477h-6.2v8.8h-2.4V477H3.2v8.8H0.8V474.5z"/>
		<path class="st0" d="M0.8,507.5h19v-6.1h2.4v14.7h-2.4v-6h-19C0.8,510.1,0.8,507.5,0.8,507.5z"/>
		<path class="st0" d="M23.1,526.6l-22.3,9.8v-2.8l6.6-2.8v-8.4l-6.6-2.8v-2.8L23.1,526.6z M17.5,526.6l-7.9-3.4v6.8L17.5,526.6z"/>
		<path class="st0" d="M0.8,541.3h21.4v5c0,1.4-0.1,2.5-0.2,3.2s-0.4,1.3-0.8,1.8c-0.5,0.6-1.2,1.1-2,1.5s-1.8,0.5-2.8,0.5
			c-1.8,0-3.1-0.5-4-1.5s-1.4-2.4-1.4-4.3V547l-10.2,8.2V552l10.2-7.8v-0.4H0.8V541.3z M20.1,543.8h-7.2v1.9c0,2,0.3,3.3,0.8,4
			s1.4,1,2.7,1c1.4,0,2.3-0.3,2.9-1s0.8-2,0.8-4V543.8z"/>
		<path class="st0" d="M0.8,563.7h19v-6.1h2.4v14.7h-2.4v-6h-19C0.8,566.3,0.8,563.7,0.8,563.7z"/>
	</g>
</svg>
