<?xml version="1.0" encoding="utf-8"?>
<svg version="1.1" xmlns="http://www.w3.org/2000/svg" xmlns:xlink="http://www.w3.org/1999/xlink" viewBox="0 0 103 165" xml:space="preserve">
	<style type="text/css">
		.stroke_elem--b { stroke: #000; fill: none; stroke-width: 3.78; stroke-miterlimit: 10; }
		.stroke_elem--a { stroke: #000; fill: none; stroke-width: 3.72; stroke-miterlimit: 10; }
		.stroke_elem--k1 { stroke: #000; fill: none; stroke-width: 3.74; stroke-miterlimit: 10; }
		.stroke_elem--k2 { stroke: #000; fill: none; stroke-width: 3.72; stroke-miterlimit: 10; }
	</style>
	<defs>
		<clipPath id="stroke_mask">
			<rect x="0" y="0" width="103" height="97" />
		</clipPath>
	</defs>
	<path id="logo_mark" d="M79.9,43.5L79.9,43.5c-2.4-1.1-4.5-1.7-6.6-2.1v-0.1c5-2.8,10.1-8.2,10.2-18.7c0-9.2-4.6-16.7-12.2-20.3l0,0
		C66.4,0.1,63.2,0,56.5,0L39.6,0l-25,61.7h-0.1V0c0,0,0,0,0,0h-3.7c0,0,0,0,0,0v96.5c0,0,0,0,0,0h3.7c0,0,0,0,0,0V71.6l0,0l9.8-24.1
		c0,0,0,0,0,0l17.5,49c0,0,0,0,0,0l22.4,0c6.1,0,11.5-0.9,15.8-2.5l0.1,0c6.8-3.1,14.9-9.9,15.1-24.9C95.3,57.5,89.6,48,79.9,43.5
		 M69.7,5.7c6.3,2.9,10,9.3,10,16.9C79.7,30.5,76.4,36,70,38.9l0,0c-3,1.1-6.8,1.7-11.1,1.7h-1.2c0,0,0,0,0,0L44.6,3.8c0,0,0,0,0,0
		h11.8C63.2,3.7,65.7,3.9,69.7,5.7 M53.7,40.6H27.2c0,0,0,0,0,0L41.3,5.7c0,0,0,0,0,0L53.7,40.6C53.8,40.6,53.7,40.6,53.7,40.6
		 M44.5,92.8L27.2,44.4c0,0,0,0,0,0h27.8c0,0,0,0,0,0l17,47.8c0,0,0,0,0,0c-2.4,0.4-5.1,0.6-7.8,0.6L44.5,92.8
		C44.5,92.8,44.5,92.8,44.5,92.8 M87.8,82.9c-2.1,3.3-5.2,5.8-9.1,7.6h0c-0.9,0.3-1.9,0.6-2.9,0.9c0,0,0,0,0,0l-16.8-47c0,0,0,0,0,0
		h2c8.7,0,12,0.2,17.2,2.5c8.3,3.9,13.2,12.2,13.2,22.2C91.5,74.6,90.3,79.2,87.8,82.9" />

	<g id="logo_bake" class="bake">
		<path class="bake_elem bake_elem--b" d="M20.8,138.6c-0.2-3.4-2.9-5.6-2.9-5.6c-0.7-0.6,0-1.1,0-1.1c1.1-1,1.5-2.9,1.5-2.9c0.3-1.2,0.3-2.6,0.1-3.9
			c-0.2-0.7-0.4-1.4-0.7-2c-0.4-0.7-1-1.3-1.6-1.7c-0.7-0.4-1.4-0.7-2.1-0.8c-0.8-0.2-1.7-0.3-2.7-0.3h-12c-0.2,0-0.3,0.1-0.3,0.3
			v26.5c0,0.2,0.1,0.3,0.3,0.3H12c1.4,0,2.5-0.1,3.5-0.5c1.4-0.4,2.5-1.1,3.5-1.9c1.2-1.1,1.9-2.9,2-4.9
			C20.9,139.7,20.9,139.1,20.8,138.6 M5.2,125.9c0-0.8,0.5-1.2,1.3-1.2h3.8c0.1,0,0.2,0,0.3,0c0.3,0,0.6,0,0.8,0
			c0.4,0.1,0.9,0.2,1.4,0.3c0.6,0.3,1,0.7,1.3,1.2s0.4,1.2,0.4,2.2c0,0.6-0.2,1-0.3,1.4c-0.4,0.7-0.9,1.2-1.7,1.4
			c-0.7,0.3-1.4,0.3-2.1,0.3h-4l0,0c-0.1,0-1.2,0-1.2-1.5V125.9z M13.5,142.8c-1,0.4-2,0.4-3,0.4c-0.2,0-0.5,0-0.7,0H9.4H6.8
			c-0.4,0-0.7,0-1.1-0.3s-0.5-0.8-0.5-1.2c0-0.3,0-0.5,0-0.8v-4.3c0-0.5,0.1-0.8,0.3-1c0.2-0.2,0.5-0.4,0.8-0.4h4.8
			c0.6,0,1.4,0.1,2.1,0.3c1.4,0.4,2.4,2,2.4,3.6C15.6,141,14.9,142.3,13.5,142.8" />
		<path class="bake_elem bake_elem--a" d="M49.6,147.2L49.6,147.2l-9.4-26.6c-0.1-0.2-0.2-0.2-0.3-0.2H35c-0.1,0-0.2,0-0.3,0.2l-9.4,26.5l0,0c0,0.1,0.1,0.3,0.2,0.3
			l0,0H30c0.1,0,0.2,0,0.3-0.2l1.6-5c0.1-0.3,0.3-0.6,0.5-0.8c0.3-0.2,0.6-0.3,1.1-0.3h7.4c0.5,0,0.9,0.1,1.1,0.3
			c0.3,0.2,0.5,0.6,0.5,0.8l1.6,5c0.1,0.2,0.2,0.2,0.3,0.2H49l0,0C49.5,147.5,49.6,147.3,49.6,147.2 M40.6,136.7
			c-0.2,0.3-0.4,0.4-0.7,0.4s-0.6,0-0.9,0h-3c-0.3,0-0.6,0-0.9,0c-0.3,0-0.6-0.2-0.7-0.4c-0.2-0.2-0.2-0.6-0.1-0.9
			c0-0.1,2.4-7.6,2.6-7.9c0.2-0.4,0.5-0.4,0.5-0.4l0,0c0.1,0,0.4,0,0.6,0.5c0.2,0.3,2.6,7.8,2.6,7.9
			C40.8,136.2,40.8,136.5,40.6,136.7" />
		<path class="bake_elem bake_elem--k" d="M78.1,147.2L78.1,147.2C78.1,147.1,78,147.1,78.1,147.2l-9.7-14.7c0-0.1-0.1-0.1-0.1-0.2c0-0.1-0.1-0.2-0.2-0.3
			c-0.3-0.5-0.2-1.1,0.2-1.7c0.2-0.3,7-7.6,8.7-9.5c0,0,0.1-0.1,0.1-0.2c0-0.2-0.1-0.3-0.3-0.3h-5.5c-0.1,0-0.2,0-0.2,0.1l0,0
			l-8.9,10.1c-0.1,0.1-0.2,0.2-0.4,0.4c-0.2,0.1-0.4,0.2-0.6,0.2c-0.3,0-0.5-0.1-0.6-0.4c-0.1-0.2-0.1-0.5-0.1-0.7v-9.4
			c0-0.2-0.1-0.3-0.3-0.3h-4.5c-0.2,0-0.3,0.1-0.3,0.3v26.5c0,0.2,0.1,0.3,0.3,0.3h4.5c0.2,0,0.3-0.1,0.3-0.3V140
			c0-0.3,0-0.6,0.1-0.9c0.1-0.5,0.4-0.8,0.6-1.1l1-1.1c0.3-0.4,0.6-0.7,0.7-0.7c0.2-0.2,0.5-0.5,0.8-0.6s0.7,0,0.9,0.3
			c0.1,0.1,0.2,0.2,0.3,0.3l0.1,0.1l6.9,11c0.1,0.1,0.2,0.1,0.2,0.1h5.7l0,0C78,147.5,78.1,147.3,78.1,147.2" />
		<path class="bake_elem bake_elem--e" d="M102.5,142.8H90.3c-0.3,0-0.8,0-1.2-0.2c-0.3-0.2-0.5-0.6-0.5-0.9v-4.8c0-0.5,0.2-0.9,0.6-1.1c0.3-0.1,0.6-0.1,0.8-0.1
			h10.8c0.2,0,0.3-0.1,0.3-0.3v-3.7c0-0.2-0.1-0.3-0.3-0.3H89.9c-0.3,0-0.6,0-0.8-0.1c-0.4-0.2-0.6-0.6-0.6-1.1v-3.9
			c0-0.3,0.2-0.7,0.5-0.9c0.3-0.2,0.8-0.2,1.1-0.2h11.8c0.2,0,0.3-0.1,0.3-0.3v-4.1c0-0.2-0.1-0.3-0.3-0.3H83.5
			c-0.1,0-0.2,0.1-0.2,0.3v24.9v1.6c0,0.2,0.1,0.3,0.3,0.3h18.7c0.2,0,0.3-0.1,0.3-0.3v-1.6v-2.5
			C102.8,142.9,102.7,142.8,102.5,142.8" />
	</g>

	<g id="logo_cheese_tart" class="cheese_tart">
		<path class="cheese_tart_elem" d="M16.2,161.3l0.9,0.5c-0.2,0.8-0.6,1.4-1.3,1.9c-0.6,0.4-1.4,0.7-2.2,0.7c-1.1,0-2-0.4-2.6-1.1c-0.7-0.7-1-1.6-1-2.6
			c0-1.1,0.3-2.1,1-2.7c0.7-0.7,1.5-1,2.6-1c1,0,1.7,0.3,2.4,0.8V157h0.9v2.3H16c-0.2-0.5-0.5-0.8-1-1.1c-0.4-0.3-0.9-0.4-1.4-0.4
			c-0.7,0-1.3,0.3-1.8,0.8s-0.7,1.2-0.7,2s0.2,1.5,0.7,2s1.1,0.8,1.8,0.8c0.6,0,1.1-0.2,1.5-0.5C15.7,162.5,16,162,16.2,161.3"/>
		<polygon class="cheese_tart_elem" points="20.3,163.4 20.3,158 19.5,158 19.5,157 22.3,157 22.3,158 21.4,158 21.4,160 24.6,160 24.6,158 23.7,158
			23.7,157 26.5,157 26.5,158 25.6,158 25.6,163.4 26.5,163.4 26.5,164.3 23.7,164.3 23.7,163.4 24.6,163.4 24.6,160.9 21.4,160.9
			21.4,163.4 22.3,163.4 22.3,164.3 19.5,164.3 19.5,163.4 			"/>
		<polygon class="cheese_tart_elem" points="29.6,163.4 29.6,158 28.6,158 28.6,157 34.7,157 34.7,159.2 33.8,159.2 33.8,158 30.7,158 30.7,160.1
			33.4,160.1 33.4,161 30.7,161 30.7,163.4 33.8,163.4 33.8,162.1 34.7,162.1 34.7,164.3 28.6,164.3 28.6,163.4 			"/>
		<polygon class="cheese_tart_elem" points="37.9,163.4 37.9,158 36.9,158 36.9,157 42.9,157 42.9,159.2 42.1,159.2 42.1,158 39,158 39,160.1 41.6,160.1
			41.6,161 39,161 39,163.4 42.1,163.4 42.1,162.1 42.9,162.1 42.9,164.3 36.9,164.3 36.9,163.4 			"/>
		<path class="cheese_tart_elem" d="M45.4,164.3v-2.6h0.9v0.6c0.4,0.8,1,1.2,1.7,1.2c0.4,0,0.7-0.1,0.9-0.3s0.4-0.5,0.4-0.9c0-0.3-0.1-0.6-0.3-0.7
			c-0.2-0.1-0.6-0.3-1.1-0.5c-0.7-0.2-1.1-0.3-1.4-0.5c-0.3-0.2-0.6-0.4-0.7-0.7c-0.2-0.3-0.3-0.6-0.3-1c0-0.6,0.2-1.1,0.6-1.5
			c0.4-0.4,0.9-0.5,1.5-0.5s1.1,0.2,1.6,0.6V157H50v2.2h-0.9v-0.5c-0.4-0.6-0.9-0.8-1.5-0.8c-0.4,0-0.7,0.1-0.9,0.3
			s-0.3,0.4-0.3,0.7c0,0.2,0.1,0.4,0.2,0.5c0.1,0.1,0.2,0.3,0.4,0.3c0.2,0.1,0.5,0.2,1,0.3c0.6,0.2,1.1,0.3,1.4,0.5
			c0.3,0.1,0.5,0.4,0.7,0.7s0.3,0.7,0.3,1.2c0,0.6-0.2,1.1-0.7,1.5c-0.4,0.4-1,0.6-1.6,0.6c-0.7,0-1.3-0.2-1.8-0.7v0.6h-0.9V164.3z
			"/>
		<polygon class="cheese_tart_elem" points="53.3,163.4 53.3,158 52.4,158 52.4,157 58.4,157 58.4,159.2 57.5,159.2 57.5,158 54.4,158 54.4,160.1
			57.1,160.1 57.1,161 54.4,161 54.4,163.4 57.5,163.4 57.5,162.1 58.4,162.1 58.4,164.3 52.4,164.3 52.4,163.4 			"/>
		<polygon class="cheese_tart_elem" points="65.6,163.4 65.6,158 64.1,158 64.1,159.8 63.2,159.8 63.2,157 69,157 69,159.8 68.1,159.8 68.1,158 66.7,158
			66.7,163.4 67.6,163.4 67.6,164.3 64.6,164.3 64.6,163.4 			"/>
		<path class="cheese_tart_elem" d="M75.3,161.7h-2.6l-0.6,1.6H73v0.9h-2.9v-0.9H71l2-5.5h-0.9V157h3.7v0.8h-0.9l2,5.5h0.8v0.9h-2.8v-0.9h0.9L75.3,161.7z
			 M75,160.9l-1-3h-0.1l-1,3H75z"/>
		<path class="cheese_tart_elem" d="M80.1,163.4V158h-1v-1H82c0.6,0,1.1,0,1.5,0.1s0.7,0.3,0.9,0.6c0.2,0.3,0.4,0.7,0.4,1.1c0,1-0.5,1.6-1.5,1.8l1.3,2.6h0.9
			v0.9h-1.6l-1.6-3.4h-1v2.5h0.9v0.9h-3v-0.9h0.9L80.1,163.4L80.1,163.4z M81.2,160H82c0.4,0,0.7,0,0.9-0.1
			c0.2-0.1,0.4-0.2,0.5-0.3c0.1-0.2,0.2-0.4,0.2-0.7c0-0.2-0.1-0.4-0.2-0.6c-0.1-0.2-0.3-0.3-0.5-0.3s-0.5-0.1-0.9-0.1h-0.9
			L81.2,160L81.2,160z"/>
		<polygon class="cheese_tart_elem" points="89.4,163.4 89.4,158 87.9,158 87.9,159.8 87,159.8 87,157 92.8,157 92.8,159.8 91.9,159.8 91.9,158 90.5,158
			90.5,163.4 91.4,163.4 91.4,164.3 88.4,164.3 88.4,163.4 			"/>
	</g>

	<g id="logo_stroke" class="stroke" clip-path="url(#stroke_mask)">
		<path id="path1" class="stroke_elem--b stroke_elem" d="M41.3,1.9c0,0,11.7,0,17.5,0S69,2.6,73.6,5.8c4.5,3.2,8.2,9.9,8,17.6s-3.5,13.2-9.7,16.5c-5.8,3.1-15.1,2.6-18.8,2.6c-3.8,0-28.8,0-28.8,0s34.1,0,38,0s10.9,0.1,16.1,2.4c7.1,3.1,11.9,9,13.9,16.2c1.4,5,1.7,15.3-2,21.3c-4.4,7-8.5,9.8-15,11.1c-6.4,1.3-8.7,1.2-15,1.2s-17.2,0-17.2,0" />
		<path id="path2" class="stroke_elem--a stroke_elem" d="M24.6,42.7l19.2,53.8" />
		<path id="path3" class="stroke_elem--k1 stroke_elem" d="M12.5,71.5 41.4,0.5 74.6,93.6" />
		<path id="path4" class="stroke_elem--k2 stroke_elem" d="M12.6,0v96.5" />
	</g>
</svg>
